<svg width="66" height="66" viewBox="0 0 66 66" fill="none" xmlns="http://www.w3.org/2000/svg">
<g filter="url(#filter0_d_1_121)">
<path d="M33 56C45.7025 56 56 45.7025 56 33C56 20.2975 45.7025 10 33 10C20.2975 10 10 20.2975 10 33C10 45.7025 20.2975 56 33 56Z" fill="white"/>
<path d="M33.7949 43.7511C35.461 43.7526 37.1064 43.3813 38.6104 42.6645C40.1144 41.9476 41.4389 40.9033 42.4869 39.6081C42.5544 39.5246 42.5947 39.4223 42.6023 39.3152C42.6099 39.2081 42.5844 39.1012 42.5294 39.009C42.4744 38.9168 42.3924 38.8437 42.2945 38.7995C42.1966 38.7554 42.0875 38.7423 41.9819 38.7621C39.9423 39.1514 37.8307 38.8039 36.0232 37.7817C34.2158 36.7595 32.8299 35.1288 32.1125 33.1802C31.395 31.2316 31.3926 29.0916 32.1056 27.1414C32.8187 25.1912 34.2008 23.5574 36.0059 22.5311C36.0993 22.4778 36.174 22.3971 36.2201 22.2999C36.2661 22.2028 36.2812 22.0938 36.2633 21.9878C36.2454 21.8818 36.1954 21.7839 36.1201 21.7072C36.0447 21.6305 35.9476 21.5788 35.8419 21.5591C34.3123 21.2751 32.7403 21.3132 31.2262 21.671C29.7121 22.0287 28.2893 22.6983 27.0485 23.6369C25.8078 24.5755 24.7763 25.7625 24.0201 27.1221C23.264 28.4817 22.7996 29.9841 22.6567 31.5333C22.5138 33.0825 22.6955 34.6445 23.1902 36.1195C23.685 37.5945 24.4818 38.9501 25.53 40.0998C26.5781 41.2496 27.8544 42.1681 29.2775 42.7968C30.7006 43.4255 32.2392 43.7505 33.7949 43.7511Z" fill="#001B48"/>
</g>
<defs>
<filter id="filter0_d_1_121" x="0" y="0" width="66" height="66" filterUnits="userSpaceOnUse" color-interpolation-filters="sRGB">
<feFlood flood-opacity="0" result="BackgroundImageFix"/>
<feColorMatrix in="SourceAlpha" type="matrix" values="0 0 0 0 0 0 0 0 0 0 0 0 0 0 0 0 0 0 127 0" result="hardAlpha"/>
<feOffset/>
<feGaussianBlur stdDeviation="5"/>
<feColorMatrix type="matrix" values="0 0 0 0 1 0 0 0 0 1 0 0 0 0 1 0 0 0 0.4 0"/>
<feBlend mode="normal" in2="BackgroundImageFix" result="effect1_dropShadow_1_121"/>
<feBlend mode="normal" in="SourceGraphic" in2="effect1_dropShadow_1_121" result="shape"/>
</filter>
</defs>
</svg>
