<svg width="66" height="66" viewBox="0 0 66 66" fill="none" xmlns="http://www.w3.org/2000/svg">
<g filter="url(#filter0_d_1_211)">
<path d="M33 56C45.7025 56 56 45.7025 56 33C56 20.2975 45.7025 10 33 10C20.2975 10 10 20.2975 10 33C10 45.7025 20.2975 56 33 56Z" fill="#CCCCCC"/>
<path d="M33.5 45.586C33.2128 45.586 32.9373 45.7001 32.7342 45.9032C32.5311 46.1063 32.417 46.3818 32.417 46.669V49.917C32.417 50.2042 32.5311 50.4797 32.7342 50.6828C32.9373 50.8859 33.2128 51 33.5 51C33.7872 51 34.0627 50.8859 34.2658 50.6828C34.4689 50.4797 34.583 50.2042 34.583 49.917V46.669C34.583 46.3818 34.4689 46.1063 34.2658 45.9032C34.0627 45.7001 33.7872 45.586 33.5 45.586Z" fill="#001B48"/>
<path d="M33.5 16C33.2128 16 32.9373 16.1141 32.7342 16.3172C32.5311 16.5203 32.417 16.7958 32.417 17.083V20.331C32.417 20.6182 32.5311 20.8937 32.7342 21.0968C32.9373 21.2999 33.2128 21.414 33.5 21.414C33.7872 21.414 34.0627 21.2999 34.2658 21.0968C34.4689 20.8937 34.583 20.6182 34.583 20.331V17.083C34.583 16.7958 34.4689 16.5203 34.2658 16.3172C34.0627 16.1141 33.7872 16 33.5 16Z" fill="#001B48"/>
<path d="M21.414 33.5C21.414 33.2128 21.2999 32.9373 21.0968 32.7342C20.8937 32.5311 20.6182 32.417 20.331 32.417H17.083C16.7958 32.417 16.5203 32.5311 16.3172 32.7342C16.1141 32.9373 16 33.2128 16 33.5C16 33.7872 16.1141 34.0627 16.3172 34.2658C16.5203 34.4689 16.7958 34.583 17.083 34.583H20.331C20.6182 34.583 20.8937 34.4689 21.0968 34.2658C21.2999 34.0627 21.414 33.7872 21.414 33.5Z" fill="#001B48"/>
<path d="M49.917 32.417H46.669C46.3818 32.417 46.1063 32.5311 45.9032 32.7342C45.7001 32.9373 45.586 33.2128 45.586 33.5C45.586 33.7872 45.7001 34.0627 45.9032 34.2658C46.1063 34.4689 46.3818 34.583 46.669 34.583H49.917C50.2042 34.583 50.4797 34.4689 50.6828 34.2658C50.8859 34.0627 51 33.7872 51 33.5C51 33.2128 50.8859 32.9373 50.6828 32.7342C50.4797 32.5311 50.2042 32.417 49.917 32.417Z" fill="#001B48"/>
<path d="M23.348 42.57C23.2058 42.5696 23.0649 42.5974 22.9335 42.6516C22.802 42.7058 22.6826 42.7855 22.582 42.886L20.282 45.186C20.0874 45.391 19.9806 45.6639 19.9843 45.9465C19.988 46.2292 20.102 46.4992 20.3019 46.699C20.5019 46.8988 20.772 47.0126 21.0546 47.0162C21.3372 47.0197 21.6101 46.9127 21.815 46.718L24.115 44.418C24.2665 44.2665 24.3697 44.0735 24.4116 43.8634C24.4534 43.6532 24.4319 43.4354 24.3499 43.2375C24.2679 43.0395 24.129 42.8704 23.9509 42.7514C23.7727 42.6324 23.5632 42.5689 23.349 42.569L23.348 42.57Z" fill="#001B48"/>
<path d="M43.652 24.43C43.7942 24.4303 43.935 24.4026 44.0665 24.3484C44.1979 24.2941 44.3174 24.2145 44.418 24.114L46.718 21.814C46.9126 21.609 47.0194 21.336 47.0157 21.0534C47.0119 20.7708 46.898 20.5008 46.698 20.301C46.4981 20.1011 46.228 19.9873 45.9454 19.9838C45.6627 19.9802 45.3899 20.0872 45.185 20.282L42.885 22.582C42.7334 22.7334 42.6302 22.9264 42.5884 23.1366C42.5466 23.3467 42.568 23.5645 42.65 23.7625C42.732 23.9604 42.8709 24.1296 43.0491 24.2486C43.2273 24.3676 43.4367 24.4311 43.651 24.431L43.652 24.43Z" fill="#001B48"/>
<path d="M21.815 20.282C21.6115 20.0798 21.3361 19.9665 21.0492 19.9669C20.7623 19.9674 20.4873 20.0815 20.2844 20.2844C20.0815 20.4873 19.9674 20.7623 19.9669 21.0492C19.9665 21.3361 20.0798 21.6115 20.282 21.815L22.582 24.115C22.7855 24.3173 23.0609 24.4306 23.3478 24.4301C23.6347 24.4297 23.9098 24.3155 24.1126 24.1126C24.3155 23.9098 24.4297 23.6347 24.4301 23.3478C24.4306 23.0609 24.3173 22.7855 24.115 22.582L21.815 20.282Z" fill="#001B48"/>
<path d="M44.419 42.886C44.3185 42.7848 44.1989 42.7045 44.0673 42.6496C43.9356 42.5947 43.7944 42.5663 43.6518 42.5661C43.5092 42.5659 43.3679 42.5938 43.2361 42.6483C43.1042 42.7028 42.9845 42.7827 42.8836 42.8836C42.7827 42.9845 42.7028 43.1042 42.6483 43.2361C42.5938 43.3679 42.5659 43.5092 42.5661 43.6518C42.5663 43.7944 42.5947 43.9356 42.6496 44.0673C42.7045 44.1989 42.7848 44.3185 42.886 44.419L45.186 46.719C45.3895 46.9212 45.6649 47.0345 45.9518 47.0341C46.2387 47.0337 46.5137 46.9195 46.7166 46.7166C46.9195 46.5137 47.0337 46.2387 47.0341 45.9518C47.0345 45.6649 46.9212 45.3895 46.719 45.186L44.419 42.886Z" fill="#001B48"/>
<path d="M33.5 26.75C32.165 26.75 30.8599 27.1459 29.7499 27.8876C28.6399 28.6293 27.7747 29.6835 27.2638 30.9169C26.7529 32.1503 26.6193 33.5075 26.8797 34.8169C27.1402 36.1262 27.783 37.329 28.727 38.273C29.671 39.217 30.8738 39.8598 32.1831 40.1203C33.4925 40.3808 34.8497 40.2471 36.0831 39.7362C37.3165 39.2253 38.3707 38.3601 39.1124 37.2501C39.8541 36.1401 40.25 34.835 40.25 33.5C40.2471 31.7107 39.535 29.9955 38.2698 28.7302C37.0045 27.465 35.2893 26.7529 33.5 26.75Z" fill="#001B48"/>
</g>
<defs>
<filter id="filter0_d_1_211" x="0" y="0" width="66" height="66" filterUnits="userSpaceOnUse" color-interpolation-filters="sRGB">
<feFlood flood-opacity="0" result="BackgroundImageFix"/>
<feColorMatrix in="SourceAlpha" type="matrix" values="0 0 0 0 0 0 0 0 0 0 0 0 0 0 0 0 0 0 127 0" result="hardAlpha"/>
<feOffset/>
<feGaussianBlur stdDeviation="5"/>
<feColorMatrix type="matrix" values="0 0 0 0 1 0 0 0 0 1 0 0 0 0 1 0 0 0 0.4 0"/>
<feBlend mode="normal" in2="BackgroundImageFix" result="effect1_dropShadow_1_211"/>
<feBlend mode="normal" in="SourceGraphic" in2="effect1_dropShadow_1_211" result="shape"/>
</filter>
</defs>
</svg>
